<?xml version="1.0" standalone="no"?>
<!DOCTYPE svg PUBLIC "-//W3C//DTD SVG 20010904//EN"
 "http://www.w3.org/TR/2001/REC-SVG-20010904/DTD/svg10.dtd">
<svg version="1.0" xmlns="http://www.w3.org/2000/svg"
 width="128.000000pt" height="128.000000pt" viewBox="0 0 128.000000 128.000000"
 preserveAspectRatio="xMidYMid meet">
<metadata>
Created by potrace 1.10, written by Peter Selinger 2001-2011
</metadata>
<g transform="translate(0.000000,128.000000) scale(0.100000,-0.100000)"
fill="#000000" stroke="none">
<path d="M462 973 c-24 -2 -58 -13 -75 -24 l-32 -19 35 0 35 0 -3 -180 -3
-180 35 0 36 0 0 118 c0 64 3 147 7 185 6 63 7 67 31 67 45 0 104 -23 133 -53
24 -23 29 -37 29 -76 0 -58 -31 -109 -75 -125 -16 -6 -41 -17 -55 -25 l-24
-14 23 -9 c25 -9 69 17 153 92 84 75 61 199 -45 239 -27 11 -113 12 -205 4z"/>
<path d="M775 696 c-77 -20 -127 -44 -162 -78 -37 -36 -41 -48 -15 -48 9 0 25
13 34 29 24 44 88 73 160 72 36 0 69 -6 83 -15 21 -14 25 -14 47 4 15 12 20
22 13 29 -17 17 -107 21 -160 7z"/>
<path d="M660 595 l-23 -25 53 0 53 0 -23 25 c-13 14 -26 25 -30 25 -4 0 -17
-11 -30 -25z"/>
<path d="M461 528 c0 -18 3 -27 6 -20 4 10 8 10 21 0 13 -11 14 -11 7 2 -5 8
-10 21 -10 29 0 8 -6 16 -12 18 -9 3 -13 -6 -12 -29z"/>
<path d="M611 533 c-1 -18 3 -33 9 -33 5 0 6 8 3 17 -5 12 -2 15 10 10 9 -3
17 -2 17 3 0 6 -6 10 -14 10 -8 0 -17 6 -19 13 -3 6 -6 -3 -6 -20z"/>
<path d="M410 456 c0 -13 -10 -36 -22 -51 l-21 -27 54 7 c75 9 89 14 89 31 0
8 -10 14 -25 14 -22 0 -24 3 -15 19 15 29 13 31 -25 31 -30 0 -35 -3 -35 -24z"/>
<path d="M540 433 c1 -121 90 -205 220 -207 43 0 67 6 108 28 58 33 62 40 11
26 -77 -22 -174 -6 -222 38 -30 26 -57 88 -57 127 0 32 -2 35 -30 35 -29 0
-30 -1 -30 -47z"/>
<path d="M762 435 c55 -53 84 -57 143 -20 l40 24 -35 1 c-19 0 -46 9 -60 20
-18 14 -41 20 -80 20 l-55 0 47 -45z"/>
</g>
</svg>
